<?xml version="1.0" encoding="utf-8"?>
<!-- Generator: Adobe Illustrator 23.0.1, SVG Export Plug-In . SVG Version: 6.00 Build 0)  -->
<svg version="1.1" id="Layer_1" xmlns="http://www.w3.org/2000/svg" xmlns:xlink="http://www.w3.org/1999/xlink" x="0px" y="0px"
	 viewBox="0 0 702.7 171.8" style="enable-background:new 0 0 702.7 171.8;" xml:space="preserve">
<style type="text/css">
	.st0{fill:#FFFFFF;}
	.st1{fill:#FFFFFF;stroke:#FFFFFF;stroke-miterlimit:10;}
</style>
<title>Blog Logo</title>
<g>
	<path class="st0" d="M133.9,36.6h28.9c7.7,0,13.5,1.5,17.4,4.7c3.8,3.2,5.9,8,5.9,15c0,4.5-0.8,8-2.2,10.5c-1.5,2.7-4,5-6.7,6.4
		c7.4,2.8,10.9,8.7,10.9,17.6c0,14.2-8,21.6-24.1,21.6h-30.1L133.9,36.6L133.9,36.6z M162.1,47.1h-15.9v21.7h16.4
		c7.4,0,10.9-3.7,10.9-11.2C173.3,50.6,169.7,47.1,162.1,47.1z M162.6,79.2h-16.5v22.6h16.7c4,0,7.2-0.8,9-2.5c2.2-1.7,3-4.7,3-8.7
		s-1.2-7.2-3.5-8.7C169.3,80,166.1,79.2,162.6,79.2z"/>
	<path class="st0" d="M201.1,112.5V34.1h12.2v78.4C213.1,112.5,201.1,112.5,201.1,112.5z"/>
	<path class="st0" d="M231.5,62.8c3.8-4.8,10.2-7.2,19.1-7.2c8.9,0,15.2,2.3,19.1,7.2c3.8,4.8,5.9,11.9,5.9,21.6s-2,16.9-5.5,21.7
		c-3.7,4.8-10,7.4-19.2,7.4c-9,0-15.4-2.5-19.2-7.4c-3.7-4.8-5.5-12.2-5.5-21.7C225.7,75,227.7,67.7,231.5,62.8z M240.4,98.9
		c1.7,2.8,5,4.5,10,4.5s8.4-1.5,10-4.5c1.7-3,2.5-7.7,2.5-14.4s-1-11.5-2.7-14.2c-1.7-2.8-5-4.2-9.9-4.2c-4.8,0-8,1.3-9.9,4.2
		c-1.7,2.8-2.7,7.5-2.7,14.2S238.9,96.1,240.4,98.9L240.4,98.9z"/>
	<path class="st0" d="M335.5,120c0,12.2-8.7,18.1-26.2,18.1c-8.5,0-14.7-1.2-18.7-3.5s-6.2-6.5-6.2-12.5c0-2.5,0.5-5,2-7.2
		c1.3-2,3.5-4,6.4-6.4c-2.5-1.5-3.7-4.2-3.7-8c0-1.5,1-3.8,3-7.2l1-1.7c-5.3-3-7.9-8.7-7.9-16.5c0-6.7,2-11.5,6-14.7
		c4-3,9.4-4.7,16.2-4.7c3.3,0,6.5,0.3,9.7,1.2l1.7,0.3l17.2-0.3v9.9l-9.2-0.5c2,2.7,3,5.9,3,9c0,7.4-1.7,12.4-5.3,15
		c-3.7,2.7-9.4,4.2-17.2,4.2c-1.5,0-3.3-0.2-4.8-0.3c-1,2.5-1.5,4.5-1.5,5.9c0,1.3,0.8,2.5,2.2,2.8c1.3,0.5,4.7,0.8,10,1
		c8.9,0,14.9,1.3,18.1,3.5C334,109.3,335.5,113.7,335.5,120z M296.2,121c0,2.5,1,4.5,3,5.5s5.5,1.7,10.5,1.7
		c8.9,0,13.5-2.5,13.5-7.7c0-2.8-0.8-4.7-2.3-5.3c-1.5-0.7-4.8-1.2-9.4-1.3l-10.9-0.5c-1.3,1-2.5,2.3-3.5,3.7
		C296.5,118.2,296.2,119.5,296.2,121z M299.7,82.7c1.5,1.5,4.2,2.3,7.9,2.3c3.7,0,6.2-0.8,7.9-2.3c1.5-1.5,2.3-4,2.3-7.5
		s-0.8-6-2.5-7.5c-1.5-1.5-4.2-2.3-7.9-2.3c-6.7,0-10.2,3.3-10.2,9.9C297.2,78.5,297.9,81.1,299.7,82.7z"/>
	<path class="st0" d="M391.8,112.5V79.7H359v32.8h-12.4V36.6H359V69h32.8V36.6h12.4v75.9C404,112.5,391.8,112.5,391.8,112.5z"/>
	<path class="st0" d="M459,102.4l3-0.3l0.2,9c-8.5,1.7-15.9,2.5-22.4,2.5c-8.4,0-14-2.3-17.7-6.7c-3.7-4.5-5.3-11.7-5.3-21.6
		c0-19.7,8-29.4,24.1-29.4c15.5,0,23.2,8.5,23.2,25.4l-0.8,8.7H429c0,4.7,1.2,7.9,3,10c1.8,2.2,5.5,3.3,10.9,3.3
		C448,103.1,453.5,103,459,102.4z M452.3,80.4c0-5.3-1-9.2-2.7-11.5c-1.7-2.2-4.7-3.3-8.9-3.3c-4,0-7.2,1.2-9,3.5s-2.8,6-2.8,11.4
		C428.8,80.4,452.3,80.4,452.3,80.4z"/>
	<path class="st0" d="M475.9,112.5V57h11.9v6.7c6.4-4,12.5-6.7,18.9-7.9V68c-5.5,1-11,2.7-16.4,4.8l-2.5,1v38.8
		C487.9,112.5,475.9,112.5,475.9,112.5z"/>
	<path class="st0" d="M555,102.4l3-0.3l0.2,9c-8.5,1.7-15.9,2.5-22.4,2.5c-8.4,0-14-2.3-17.7-6.7c-3.7-4.5-5.3-11.7-5.3-21.6
		c0-19.7,8-29.4,24.1-29.4c15.5,0,23.2,8.5,23.2,25.4l-0.8,8.7h-34.1c0,4.7,1.2,7.9,3,10c2,2.2,5.5,3.3,10.9,3.3
		C544,103.1,549.3,103,555,102.4z M548.3,80.4c0-5.3-1-9.2-2.7-11.5c-1.7-2.2-4.7-3.3-8.9-3.3s-7.2,1.2-9,3.5s-2.8,6-2.8,11.4
		C524.7,80.4,548.3,80.4,548.3,80.4z"/>
</g>
<g>
	<path class="st1" d="M20.2,39.5h3.6v3.6h-3.6V39.5z"/>
	<path class="st1" d="M27.3,39.5h3.6v3.6h-3.6V39.5z"/>
	<path class="st1" d="M34.3,39.5h3.6v3.6h-3.6V39.5z"/>
	<path class="st1" d="M43.1,57.2H21.9c-1,0-1.7,0.9-1.7,1.7v17.7c0,1,0.9,1.7,1.7,1.7H43c1,0,1.7-0.9,1.7-1.7V59
		C44.8,57.9,44.1,57.2,43.1,57.2z M41.4,74.8H23.7V60.7h17.7V74.8z"/>
	<path class="st1" d="M51.8,57.2h7v3.6h-7V57.2z"/>
	<path class="st1" d="M62.5,57.2h28.2v3.6H62.5V57.2z"/>
	<path class="st1" d="M51.8,64.3h38.9v3.6H51.8V64.3z"/>
	<path class="st1" d="M51.8,71.3h17.7v3.6H51.8V71.3z"/>
	<path class="st1" d="M73,71.3h10.7v3.6H73V71.3z"/>
	<path class="st1" d="M20.2,85.4H45V89H20.2V85.4z"/>
	<path class="st1" d="M20.2,92.5H45v3.6H20.2V92.5z"/>
	<path class="st1" d="M20.2,99.5H45v3.6H20.2V99.5z"/>
	<path class="st1" d="M20.2,106.6H45v3.6H20.2V106.6z"/>
	<path class="st1" d="M109.9,55.5c-2.8-1.5-6.2-1.5-8.8,0V37.8c0-2.9-2.4-5.3-5.3-5.3h-81c-2.9,0-5.3,2.4-5.3,5.3v81.1
		c0,2.9,2.4,5.3,5.3,5.3l0,0H96c2.9,0,5.3-2.4,5.3-5.3l0,0V88.5l12-20.8C115.6,63.4,114.2,57.9,109.9,55.5z M74.5,106.6h-19V88.9
		h25.3L76.2,97C76,97.3,76,97.7,76,98l0.3,5.8L74.5,106.6z M76.8,109.7l1.7-3.1l3.1,1.7l-1.7,3.1c-0.5,0.9-1.5,1.2-2.4,0.7
		C76.6,111.6,76.3,110.5,76.8,109.7z M84,105.7l-4.5-2.6l-0.3-4.3l8.6,5L84,105.7z M90,100.9l-3.1-1.7l13.2-22.9L97,74.6L83.8,97.5
		l-3.1-1.7l15-26l9.1,5.3L90,100.9z M97.6,66.7l0.9-1.5l9.1,5.3l-0.9,1.5L97.6,66.7z M14.9,36.1H96c1,0,1.7,0.9,1.7,1.7v8.9H13.2
		v-8.9C13.2,36.8,13.9,36.1,14.9,36.1z M97.7,118.8c0,1-0.9,1.7-1.7,1.7H14.9c-1,0-1.7-0.9-1.7-1.7V50.2h84.6v9.1L82.6,85.4h-29
		c-1,0-1.7,0.9-1.7,1.7v21.1c0,1,0.9,1.7,1.7,1.7H73c-0.2,2.9,1.9,5.5,4.8,5.7c2.1,0.2,4-0.9,5-2.6l2.4-4.1l5.2-2.6
		c0.3-0.2,0.5-0.3,0.7-0.7l6.5-11.2L97.7,118.8L97.7,118.8z M110.1,65.8l-0.9,1.5l-9.1-5.3l0.9-1.5c1.4-2.6,4.6-3.4,7.2-1.9
		C110.8,60.2,111.7,63.2,110.1,65.8L110.1,65.8z"/>
</g>
</svg>
